<svg xmlns="http://www.w3.org/2000/svg" viewBox="0 0 900 1200">
<defs><linearGradient id="b" x1="0" y1="0" x2="1" y2="1"><stop stop-color="#080b11"/><stop offset="1" stop-color="#18212d"/></linearGradient><radialGradient id="g"><stop stop-color="#7bc9e8" stop-opacity=".36"/><stop offset="1" stop-color="#7bc9e8" stop-opacity="0"/></radialGradient></defs>
<rect width="900" height="1200" fill="url(#b)"/><circle cx="450" cy="430" r="370" fill="url(#g)"/>
<g fill="none" stroke="#7bc9e8" stroke-opacity=".7"><circle cx="450" cy="430" r="220" stroke-width="3"/><circle cx="450" cy="430" r="150" stroke-width="2"/><path d="M450 150v560M170 430h560M250 230l400 400M650 230L250 630" stroke-width="2"/></g>
<path d="M450 225c-105 0-190 85-190 190 0 77 46 143 112 173l-58 180h272l-58-180c66-30 112-96 112-173 0-105-85-190-190-190z" fill="#0e141d" stroke="#a8b1be" stroke-opacity=".45" stroke-width="4"/>
<rect x="120" y="895" width="660" height="160" rx="12" fill="#090d13" fill-opacity=".88" stroke="#ffffff" stroke-opacity=".1"/>
<text x="450" y="945" text-anchor="middle" fill="#7bc9e8" font-size="22" letter-spacing="7" font-family="Arial,sans-serif">SELLO</text>
<text x="450" y="1010" text-anchor="middle" fill="#f2efe8" font-size="43" font-family="Georgia,serif">SELLO AURELIAN</text>
<text x="450" y="1082" text-anchor="middle" fill="#778292" font-size="17" letter-spacing="3" font-family="Arial,sans-serif">REEMPLAZAR CON EL ARTE OFICIAL</text>
</svg>